<svg xmlns="http://www.w3.org/2000/svg" viewBox="0 0 128 128" role="img" aria-labelledby="title desc">
  <title id="title">MyLogger icon</title>
  <desc id="desc">A MyLogger app icon with a log window, filter funnel, and M mark.</desc>
  <defs>
    <linearGradient id="bg" x1="18" y1="10" x2="110" y2="118" gradientUnits="userSpaceOnUse">
      <stop offset="0" stop-color="#2563eb"/>
      <stop offset="1" stop-color="#0f766e"/>
    </linearGradient>
    <linearGradient id="panel" x1="30" y1="28" x2="100" y2="104" gradientUnits="userSpaceOnUse">
      <stop offset="0" stop-color="#ffffff"/>
      <stop offset="1" stop-color="#dbeafe"/>
    </linearGradient>
  </defs>
  <rect x="8" y="8" width="112" height="112" rx="24" fill="url(#bg)"/>
  <rect x="24" y="27" width="80" height="74" rx="10" fill="url(#panel)" opacity="0.96"/>
  <rect x="24" y="27" width="80" height="17" rx="10" fill="#0f172a"/>
  <rect x="24" y="37" width="80" height="8" fill="#0f172a"/>
  <circle cx="35" cy="36" r="3" fill="#22c55e"/>
  <circle cx="45" cy="36" r="3" fill="#facc15"/>
  <circle cx="55" cy="36" r="3" fill="#ef4444"/>
  <path d="M36 58h32M36 70h25M36 82h36" stroke="#334155" stroke-width="5" stroke-linecap="round"/>
  <path d="M77 56h24L91 70v15l-7 5V70L77 56z" fill="#0f766e"/>
  <path d="M43 96V59h8l12 18 12-18h8v37h-8V73L65 88h-4L51 73v23h-8z" fill="#1d4ed8"/>
</svg>
